<?xml version="1.0" encoding="UTF-8"?>
<!DOCTYPE svg PUBLIC "-//W3C//DTD SVG 1.1//EN" "http://www.w3.org/Graphics/SVG/1.1/DTD/svg11.dtd">
<!-- Creator: CorelDRAW 2019 (64-Bit) -->
<svg xmlns="http://www.w3.org/2000/svg" xml:space="preserve" width="1098px" height="187px" version="1.1" shape-rendering="geometricPrecision" text-rendering="geometricPrecision" image-rendering="optimizeQuality" fill-rule="evenodd" clip-rule="evenodd"
viewBox="0 0 1098 187.16"
 xmlns:xlink="http://www.w3.org/1999/xlink">
 <g id="Layer_x0020_1">
  <metadata id="CorelCorpID_0Corel-Layer"/>
  <g id="_2519449135248">
   <path fill="#00695c" fill-rule="nonzero" d="M307.83 115.44c-4.09,4.94 -9.05,8.86 -14.89,11.77 -5.83,2.91 -12.26,4.36 -19.29,4.36 -6.07,0 -11.77,-1.09 -17.09,-3.29 -5.32,-2.2 -9.94,-5.19 -13.88,-8.98 -3.94,-3.79 -7.04,-8.24 -9.31,-13.34 -2.27,-5.11 -3.41,-10.6 -3.41,-16.49 0,-5.88 1.14,-11.38 3.41,-16.48 2.27,-5.11 5.37,-9.57 9.31,-13.39 3.94,-3.83 8.56,-6.82 13.88,-8.98 5.32,-2.17 11.02,-3.25 17.09,-3.25 7.03,0 13.46,1.45 19.29,4.36 5.84,2.91 10.7,6.7 14.59,11.37l-10.95 11.16c-2.53,-3.59 -5.78,-6.48 -9.78,-8.68 -3.99,-2.2 -8.37,-3.3 -13.15,-3.3 -3.82,0 -7.42,0.73 -10.79,2.19 -3.38,1.45 -6.33,3.41 -8.85,5.88 -2.53,2.47 -4.52,5.34 -5.99,8.62 -1.47,3.28 -2.2,6.78 -2.2,10.5 0,3.65 0.73,7.12 2.2,10.4 1.47,3.28 3.46,6.16 5.99,8.62 2.52,2.47 5.47,4.43 8.85,5.89 3.37,1.45 6.97,2.18 10.79,2.18 5.05,0 9.52,-1.13 13.41,-3.4 3.89,-2.26 7.13,-5.26 9.72,-8.98l11.05 11.26z"/>
   <path id="1" fill="#00695c" fill-rule="nonzero" d="M375.45 100.73c0,4.4 -0.82,8.47 -2.46,12.23 -1.64,3.75 -3.89,7 -6.75,9.74 -2.87,2.74 -6.23,4.9 -10.08,6.49 -3.86,1.59 -7.97,2.38 -12.33,2.38 -4.37,0 -8.46,-0.79 -12.28,-2.38 -3.83,-1.59 -7.17,-3.77 -10.03,-6.54 -2.87,-2.78 -5.12,-6.04 -6.76,-9.79 -1.63,-3.76 -2.45,-7.8 -2.45,-12.13 0,-4.26 0.83,-8.26 2.5,-12.02 1.67,-3.75 3.94,-7.03 6.81,-9.84 2.86,-2.81 6.21,-5 10.03,-6.59 3.82,-1.59 7.88,-2.39 12.18,-2.39 4.36,0 8.47,0.8 12.33,2.39 3.85,1.59 7.21,3.75 10.08,6.49 2.86,2.74 5.11,6 6.75,9.79 1.64,3.79 2.46,7.85 2.46,12.17zm-14.74 0c0,-2.5 -0.44,-4.83 -1.33,-7 -0.89,-2.16 -2.08,-4.05 -3.62,-5.68 -1.53,-1.62 -3.32,-2.89 -5.35,-3.8 -2.05,-0.92 -4.21,-1.37 -6.53,-1.37 -2.32,0 -4.49,0.45 -6.54,1.37 -2.02,0.91 -3.82,2.18 -5.35,3.8 -1.54,1.63 -2.73,3.52 -3.62,5.68 -0.88,2.17 -1.33,4.5 -1.33,7 0,2.51 0.45,4.84 1.33,7 0.89,2.17 2.08,4.06 3.62,5.69 1.53,1.62 3.33,2.89 5.35,3.8 2.05,0.91 4.22,1.37 6.54,1.37 2.32,0 4.48,-0.46 6.53,-1.37 2.03,-0.91 3.82,-2.18 5.35,-3.8 1.54,-1.63 2.73,-3.52 3.62,-5.69 0.89,-2.16 1.33,-4.49 1.33,-7z"/>
   <path id="2" fill="#00695c" fill-rule="nonzero" d="M472.53 130.05l-14.73 0 0 -35c0,-4.12 -1.01,-7.25 -3.02,-9.38 -2.02,-2.13 -4.49,-3.2 -7.42,-3.2 -2.25,0 -4.39,0.36 -6.4,1.07 -2.01,0.71 -3.97,1.87 -5.88,3.5 0.61,2.37 0.92,5.04 0.92,8.01l0 35 -14.74 0 0 -35c0,-4.12 -1,-7.25 -3.02,-9.38 -2.01,-2.13 -4.45,-3.2 -7.31,-3.2 -2.25,0 -4.23,0.39 -5.94,1.17 -1.71,0.78 -3.48,2.01 -5.32,3.7l0 42.71 -14.74 0 0 -58.64 14.74 0 0.02 4.37c1.84,-1.76 4,-3.18 6.5,-4.26 2.5,-1.09 5.04,-1.63 7.64,-1.63 2.86,0 5.74,0.65 8.66,1.93 2.9,1.29 5.44,3.15 7.62,5.58 3.07,-2.71 6.18,-4.63 9.33,-5.78 3.14,-1.15 6.59,-1.73 10.34,-1.73 3.09,0 6,0.46 8.77,1.37 2.76,0.92 5.16,2.37 7.23,4.37 2.04,1.99 3.68,4.53 4.91,7.6 1.23,3.08 1.84,6.78 1.84,11.11l0 35.71z"/>
   <path id="3" fill="#00695c" fill-rule="nonzero" d="M540.86 100.84c0,4.12 -0.7,8.04 -2.1,11.76 -1.4,3.72 -3.38,6.99 -5.9,9.79 -2.52,2.81 -5.54,5.04 -9.02,6.7 -3.5,1.66 -7.32,2.48 -11.5,2.48 -2.59,0 -5.03,-0.35 -7.28,-1.06 -2.25,-0.71 -4.38,-1.84 -6.36,-3.4l0.1 28.41 -14.84 0 0 -84.21 14.84 0 0.1 3.05c1.71,-1.36 3.74,-2.44 6.09,-3.25 2.36,-0.81 4.83,-1.22 7.42,-1.22 3.62,0 7.13,0.8 10.54,2.39 3.41,1.59 6.45,3.77 9.11,6.54 2.66,2.77 4.79,6.04 6.4,9.79 1.6,3.75 2.4,7.83 2.4,12.23zm-15.04 0.1c0,-2.78 -0.41,-5.28 -1.23,-7.51 -0.82,-2.23 -1.98,-4.14 -3.45,-5.73 -1.46,-1.59 -3.22,-2.81 -5.23,-3.65 -2.03,-0.85 -4.27,-1.27 -6.74,-1.27 -1.57,0 -3.36,0.32 -5.39,0.96 -2.01,0.64 -3.72,1.5 -5.08,2.59l0 28.1c3.22,2.91 6.81,4.36 10.78,4.36 2.33,0 4.5,-0.44 6.53,-1.32 2.01,-0.88 3.75,-2.11 5.19,-3.7 1.43,-1.59 2.57,-3.48 3.39,-5.68 0.82,-2.2 1.23,-4.58 1.23,-7.15z"/>
   <path id="4" fill="#00695c" fill-rule="nonzero" d="M592.82 77.5l-7.88 12.38c-1.44,-1.56 -3.02,-2.93 -4.76,-4.11 -1.74,-1.18 -3.5,-1.78 -5.27,-1.78 -0.96,0 -2,0.22 -3.12,0.66 -1.13,0.44 -2.19,1.17 -3.18,2.19 -0.99,1.01 -1.82,2.34 -2.5,4 -0.68,1.66 -1.03,3.7 -1.03,6.14l0 33.07 -14.73 0 0 -58.64 14.73 0 0 6.29c1.78,-2.5 3.74,-4.43 5.89,-5.78 2.15,-1.35 4.55,-2.03 7.21,-2.03 2.59,0 5.14,0.7 7.63,2.08 2.49,1.39 4.82,3.23 7.01,5.53z"/>
   <path id="5" fill="#00695c" fill-rule="nonzero" d="M646.31 130.05l-14.74 0 0 -3.14c-2.59,1.76 -5.34,2.97 -8.24,3.65 -2.9,0.68 -5.88,1.01 -8.95,1.01 -2.87,0 -5.46,-0.42 -7.78,-1.26 -2.32,-0.85 -4.33,-2.07 -6.04,-3.66 -1.7,-1.59 -3.02,-3.46 -3.94,-5.63 -0.92,-2.16 -1.38,-4.56 -1.38,-7.2 0,-3.31 0.74,-6.2 2.2,-8.67 1.47,-2.47 3.46,-4.53 5.99,-6.19 2.52,-1.66 5.47,-2.89 8.85,-3.7 3.38,-0.82 7.01,-1.22 10.9,-1.22l8.49 0c0,-3.45 -1.12,-6.19 -3.37,-8.22 -2.26,-2.03 -5.5,-3.04 -9.73,-3.04 -2.04,0 -4.16,0.37 -6.34,1.11 -2.18,0.75 -4.37,2.1 -6.55,4.06l-8.7 -8.72c3.14,-2.98 6.77,-5.28 10.9,-6.9 4.13,-1.63 8.37,-2.44 12.74,-2.44 4.09,0 7.74,0.65 10.93,1.93 3.19,1.29 5.78,2.94 7.75,4.97 2.57,2.57 4.38,5.45 5.44,8.62 1.04,3.18 1.57,7.24 1.57,12.18l0 32.46zm-14.74 -14.61l0 -10.85 -6.75 0c-2.05,0 -3.98,0.13 -5.79,0.4 -1.8,0.28 -3.37,0.73 -4.7,1.37 -1.33,0.65 -2.39,1.48 -3.17,2.49 -0.79,1.01 -1.18,2.23 -1.18,3.65 0,2.03 0.8,3.69 2.4,4.97 1.61,1.29 3.67,1.93 6.19,1.93 2.19,0 4.35,-0.34 6.5,-1.01 2.15,-0.68 4.32,-1.66 6.5,-2.95z"/>
   <path id="6" fill="#00695c" fill-rule="nonzero" d="M700.41 77.5l-7.88 12.38c-1.43,-1.56 -3.02,-2.93 -4.76,-4.11 -1.74,-1.18 -3.49,-1.78 -5.27,-1.78 -0.95,0 -1.99,0.22 -3.12,0.66 -1.13,0.44 -2.18,1.17 -3.17,2.19 -0.99,1.01 -1.83,2.34 -2.51,4 -0.68,1.66 -1.02,3.7 -1.02,6.14l0 33.07 -14.74 0 0 -58.64 14.74 0 0 6.29c1.77,-2.5 3.73,-4.43 5.88,-5.78 2.15,-1.35 4.56,-2.03 7.22,-2.03 2.59,0 5.13,0.7 7.62,2.08 2.49,1.39 4.83,3.23 7.01,5.53z"/>
   <path id="7" fill="#00695c" fill-rule="nonzero" d="M791.97 130.05l-14.74 0 0 -35c0,-2.09 -0.32,-3.94 -0.97,-5.53 -0.65,-1.59 -1.53,-2.91 -2.63,-3.95 -1.09,-1.05 -2.33,-1.83 -3.75,-2.34 -1.4,-0.5 -2.86,-0.76 -4.37,-0.76 -2.25,0 -4.48,0.39 -6.68,1.17 -2.18,0.78 -4.18,2.01 -5.95,3.7l0 42.71 -14.74 0 0 -58.64 14.74 0 0.1 4.37c0.89,-0.88 1.98,-1.69 3.27,-2.44 1.3,-0.74 2.65,-1.37 4.05,-1.87 1.39,-0.51 2.83,-0.9 4.29,-1.17 1.47,-0.27 2.89,-0.41 4.25,-0.41 3,0 5.89,0.48 8.65,1.42 2.76,0.95 5.22,2.4 7.37,4.37 2.14,1.96 3.87,4.49 5.16,7.6 1.3,3.11 1.95,6.8 1.95,11.06l0 35.71z"/>
   <path id="8" fill="#00695c" fill-rule="nonzero" d="M864.59 100.73c0,4.4 -0.81,8.47 -2.45,12.23 -1.64,3.75 -3.89,7 -6.76,9.74 -2.86,2.74 -6.22,4.9 -10.08,6.49 -3.85,1.59 -7.96,2.38 -12.33,2.38 -4.36,0 -8.46,-0.79 -12.28,-2.38 -3.82,-1.59 -7.16,-3.77 -10.02,-6.54 -2.87,-2.78 -5.12,-6.04 -6.76,-9.79 -1.64,-3.76 -2.46,-7.8 -2.46,-12.13 0,-4.26 0.84,-8.26 2.51,-12.02 1.67,-3.75 3.94,-7.03 6.81,-9.84 2.86,-2.81 6.21,-5 10.03,-6.59 3.82,-1.59 7.88,-2.39 12.17,-2.39 4.37,0 8.48,0.8 12.33,2.39 3.86,1.59 7.22,3.75 10.08,6.49 2.87,2.74 5.12,6 6.76,9.79 1.64,3.79 2.45,7.85 2.45,12.17zm-14.73 0c0,-2.5 -0.44,-4.83 -1.33,-7 -0.89,-2.16 -2.08,-4.05 -3.62,-5.68 -1.53,-1.62 -3.32,-2.89 -5.35,-3.8 -2.05,-0.92 -4.21,-1.37 -6.53,-1.37 -2.32,0 -4.49,0.45 -6.54,1.37 -2.03,0.91 -3.82,2.18 -5.35,3.8 -1.54,1.63 -2.73,3.52 -3.62,5.68 -0.89,2.17 -1.33,4.5 -1.33,7 0,2.51 0.44,4.84 1.33,7 0.89,2.17 2.08,4.06 3.62,5.69 1.53,1.62 3.32,2.89 5.35,3.8 2.05,0.91 4.22,1.37 6.54,1.37 2.32,0 4.48,-0.46 6.53,-1.37 2.03,-0.91 3.82,-2.18 5.35,-3.8 1.54,-1.63 2.73,-3.52 3.62,-5.69 0.89,-2.16 1.33,-4.49 1.33,-7z"/>
   <polygon id="9" fill="#00695c" fill-rule="nonzero" points="971.2,48.89 931.59,114.53 970.89,114.53 970.89,130.05 904.27,130.05 944.79,62.89 905.81,62.99 905.81,48.89 "/>
   <path id="10" fill="#00695c" fill-rule="nonzero" d="M1028.68 130.05l-14.74 0 0 -3.14c-2.59,1.76 -5.34,2.97 -8.24,3.65 -2.9,0.68 -5.88,1.01 -8.95,1.01 -2.87,0 -5.46,-0.42 -7.78,-1.26 -2.32,-0.85 -4.33,-2.07 -6.03,-3.66 -1.71,-1.59 -3.02,-3.46 -3.94,-5.63 -0.93,-2.16 -1.39,-4.56 -1.39,-7.2 0,-3.31 0.74,-6.2 2.2,-8.67 1.47,-2.47 3.47,-4.53 5.99,-6.19 2.53,-1.66 5.48,-2.89 8.85,-3.7 3.38,-0.82 7.01,-1.22 10.9,-1.22l8.49 0c0,-3.45 -1.12,-6.19 -3.37,-8.22 -2.25,-2.03 -5.49,-3.04 -9.72,-3.04 -2.05,0 -4.17,0.37 -6.35,1.11 -2.18,0.75 -4.36,2.1 -6.55,4.06l-8.7 -8.72c3.14,-2.98 6.77,-5.28 10.9,-6.9 4.13,-1.63 8.38,-2.44 12.74,-2.44 4.1,0 7.75,0.65 10.94,1.93 3.18,1.29 5.78,2.94 7.74,4.97 2.57,2.57 4.38,5.45 5.44,8.62 1.04,3.18 1.57,7.24 1.57,12.18l0 32.46zm-14.74 -14.61l0 -10.85 -6.75 0c-2.05,0 -3.98,0.13 -5.78,0.4 -1.81,0.28 -3.38,0.73 -4.71,1.37 -1.33,0.65 -2.39,1.48 -3.17,2.49 -0.79,1.01 -1.18,2.23 -1.18,3.65 0,2.03 0.8,3.69 2.4,4.97 1.61,1.29 3.67,1.93 6.2,1.93 2.18,0 4.34,-0.34 6.49,-1.01 2.15,-0.68 4.32,-1.66 6.5,-2.95z"/>
   <path id="11" fill="#00695c" fill-rule="nonzero" d="M1097.21 100.84c0,4.12 -0.7,8.04 -2.1,11.76 -1.39,3.72 -3.37,6.99 -5.9,9.79 -2.52,2.81 -5.54,5.04 -9.02,6.7 -3.5,1.66 -7.32,2.48 -11.5,2.48 -2.59,0 -5.03,-0.35 -7.28,-1.06 -2.25,-0.71 -4.38,-1.84 -6.36,-3.4l0.1 28.41 -14.84 0 0 -84.21 14.84 0 0.1 3.05c1.71,-1.36 3.74,-2.44 6.09,-3.25 2.36,-0.81 4.83,-1.22 7.42,-1.22 3.62,0 7.13,0.8 10.54,2.39 3.42,1.59 6.45,3.77 9.11,6.54 2.66,2.77 4.79,6.04 6.4,9.79 1.6,3.75 2.4,7.83 2.4,12.23zm-15.04 0.1c0,-2.78 -0.41,-5.28 -1.23,-7.51 -0.82,-2.23 -1.98,-4.14 -3.44,-5.73 -1.47,-1.59 -3.23,-2.81 -5.24,-3.65 -2.03,-0.85 -4.26,-1.27 -6.74,-1.27 -1.57,0 -3.36,0.32 -5.39,0.96 -2.01,0.64 -3.71,1.5 -5.08,2.59l0 28.1c3.22,2.91 6.81,4.36 10.78,4.36 2.34,0 4.5,-0.44 6.53,-1.32 2.01,-0.88 3.75,-2.11 5.19,-3.7 1.43,-1.59 2.57,-3.48 3.39,-5.68 0.82,-2.2 1.23,-4.58 1.23,-7.15z"/>
   <path fill="#00695c" d="M94.57 0.06c-50.78,0 -91.95,40.82 -91.95,91.17 0,17.23 4.82,33.34 13.19,47.08l-16.6 48.91 50.92 -16.16c13.17,7.22 28.32,11.34 44.44,11.34 50.8,0 91.97,-40.82 91.97,-91.17 0,-50.35 -41.17,-91.17 -91.97,-91.17zm0 167.07c-15.54,0 -30.02,-4.63 -42.11,-12.55l-29.42 9.33 9.56 -28.18c-9.17,-12.51 -14.58,-27.89 -14.58,-44.5 0,-41.85 34.34,-75.9 76.55,-75.9 42.22,0 76.56,34.05 76.56,75.9 0,41.85 -34.34,75.9 -76.56,75.9z"/>
  </g>
 </g>
</svg>
