<?xml version="1.0" encoding="UTF-8"?>
<!DOCTYPE svg PUBLIC "-//W3C//DTD SVG 1.1//EN" "http://www.w3.org/Graphics/SVG/1.1/DTD/svg11.dtd">
<!-- Creator: CorelDRAW 2019 (64-Bit) -->
<svg xmlns="http://www.w3.org/2000/svg" xml:space="preserve" width="304px" height="270px" version="1.1" shape-rendering="geometricPrecision" text-rendering="geometricPrecision" image-rendering="optimizeQuality" fill-rule="evenodd" clip-rule="evenodd"
viewBox="0 0 304 270.03"
 xmlns:xlink="http://www.w3.org/1999/xlink">
 <g id="Layer_x0020_1">
  <metadata id="CorelCorpID_0Corel-Layer"/>
  <g id="_3078972124512">
   <path fill="#455A64" fill-rule="nonzero" d="M27.18 255.95c-1.43,1.74 -3.17,3.13 -5.22,4.16 -2.04,1.03 -4.3,1.54 -6.76,1.54 -2.13,0 -4.12,-0.39 -5.99,-1.16 -1.87,-0.78 -3.49,-1.84 -4.87,-3.18 -1.38,-1.34 -2.47,-2.91 -3.26,-4.72 -0.8,-1.8 -1.2,-3.74 -1.2,-5.83 0,-2.08 0.4,-4.02 1.2,-5.82 0.79,-1.81 1.88,-3.39 3.26,-4.74 1.38,-1.35 3,-2.41 4.87,-3.17 1.87,-0.77 3.86,-1.15 5.99,-1.15 2.46,0 4.72,0.51 6.76,1.54 2.05,1.03 3.75,2.37 5.11,4.02l-3.83 3.94c-0.89,-1.26 -2.03,-2.29 -3.43,-3.06 -1.4,-0.78 -2.94,-1.17 -4.61,-1.17 -1.34,0 -2.6,0.26 -3.78,0.77 -1.19,0.52 -2.22,1.21 -3.11,2.08 -0.88,0.88 -1.58,1.89 -2.1,3.05 -0.51,1.16 -0.77,2.4 -0.77,3.71 0,1.3 0.26,2.52 0.77,3.68 0.52,1.16 1.22,2.18 2.1,3.05 0.89,0.87 1.92,1.57 3.11,2.08 1.18,0.52 2.44,0.77 3.78,0.77 1.77,0 3.34,-0.4 4.7,-1.2 1.36,-0.8 2.5,-1.86 3.41,-3.17l3.87 3.98z"/>
   <path id="1" fill="#455A64" fill-rule="nonzero" d="M50.88 250.75c0,1.55 -0.28,2.99 -0.86,4.32 -0.57,1.33 -1.36,2.47 -2.37,3.44 -1,0.97 -2.18,1.74 -3.53,2.3 -1.35,0.56 -2.79,0.84 -4.32,0.84 -1.53,0 -2.97,-0.28 -4.31,-0.84 -1.34,-0.56 -2.51,-1.33 -3.51,-2.31 -1.01,-0.99 -1.8,-2.14 -2.37,-3.47 -0.57,-1.32 -0.86,-2.75 -0.86,-4.28 0,-1.51 0.29,-2.93 0.88,-4.25 0.58,-1.33 1.38,-2.49 2.38,-3.48 1.01,-1 2.18,-1.77 3.52,-2.34 1.34,-0.56 2.76,-0.84 4.27,-0.84 1.53,0 2.97,0.28 4.32,0.84 1.35,0.57 2.53,1.33 3.53,2.3 1.01,0.97 1.8,2.12 2.37,3.46 0.58,1.34 0.86,2.78 0.86,4.31zm-5.16 0c0,-0.89 -0.16,-1.71 -0.47,-2.48 -0.31,-0.76 -0.73,-1.43 -1.27,-2.01 -0.54,-0.57 -1.16,-1.02 -1.87,-1.34 -0.72,-0.33 -1.48,-0.49 -2.29,-0.49 -0.82,0 -1.58,0.16 -2.29,0.49 -0.72,0.32 -1.34,0.77 -1.88,1.34 -0.54,0.58 -0.96,1.25 -1.27,2.01 -0.31,0.77 -0.46,1.59 -0.46,2.48 0,0.88 0.15,1.71 0.46,2.47 0.31,0.77 0.73,1.44 1.27,2.01 0.54,0.57 1.16,1.02 1.88,1.35 0.71,0.32 1.47,0.48 2.29,0.48 0.81,0 1.57,-0.16 2.29,-0.48 0.71,-0.33 1.33,-0.78 1.87,-1.35 0.54,-0.57 0.96,-1.24 1.27,-2.01 0.31,-0.76 0.47,-1.59 0.47,-2.47z"/>
   <path id="2" fill="#455A64" fill-rule="nonzero" d="M84.91 261.11l-5.16 0 0 -12.37c0,-1.46 -0.35,-2.57 -1.06,-3.32 -0.7,-0.75 -1.57,-1.13 -2.6,-1.13 -0.79,0 -1.54,0.13 -2.24,0.38 -0.71,0.25 -1.4,0.66 -2.07,1.23 0.22,0.84 0.33,1.79 0.33,2.84l0 12.37 -5.17 0 0 -12.37c0,-1.46 -0.35,-2.57 -1.06,-3.32 -0.7,-0.75 -1.56,-1.13 -2.56,-1.13 -0.79,0 -1.48,0.14 -2.08,0.41 -0.6,0.28 -1.22,0.71 -1.87,1.31l0 15.1 -5.16 0 0 -20.73 5.16 0 0.01 1.54c0.64,-0.62 1.4,-1.12 2.28,-1.5 0.88,-0.39 1.77,-0.58 2.68,-0.58 1,0 2.01,0.23 3.03,0.68 1.02,0.46 1.91,1.12 2.68,1.98 1.07,-0.96 2.16,-1.64 3.27,-2.05 1.1,-0.4 2.3,-0.61 3.62,-0.61 1.08,0 2.1,0.16 3.07,0.49 0.97,0.32 1.81,0.83 2.54,1.54 0.71,0.7 1.29,1.6 1.72,2.69 0.43,1.09 0.64,2.4 0.64,3.93l0 12.62z"/>
   <path id="3" fill="#455A64" fill-rule="nonzero" d="M108.87 250.78c0,1.46 -0.25,2.85 -0.74,4.16 -0.49,1.32 -1.18,2.47 -2.07,3.47 -0.88,0.99 -1.94,1.78 -3.16,2.36 -1.23,0.59 -2.57,0.88 -4.03,0.88 -0.91,0 -1.76,-0.12 -2.55,-0.37 -0.79,-0.26 -1.54,-0.66 -2.23,-1.21l0.03 10.05 -5.2 0 0 -29.78 5.2 0 0.04 1.08c0.6,-0.48 1.31,-0.86 2.13,-1.15 0.83,-0.29 1.69,-0.43 2.6,-0.43 1.27,0 2.5,0.28 3.7,0.84 1.19,0.57 2.26,1.34 3.19,2.32 0.93,0.98 1.68,2.13 2.24,3.46 0.56,1.33 0.85,2.77 0.85,4.32zm-5.28 0.04c0,-0.98 -0.14,-1.87 -0.43,-2.66 -0.29,-0.79 -0.69,-1.46 -1.21,-2.02 -0.51,-0.57 -1.13,-1 -1.83,-1.29 -0.71,-0.3 -1.5,-0.45 -2.36,-0.45 -0.55,0 -1.18,0.11 -1.89,0.34 -0.71,0.22 -1.3,0.53 -1.78,0.91l0 9.94c1.13,1.03 2.38,1.54 3.78,1.54 0.81,0 1.57,-0.15 2.28,-0.46 0.71,-0.32 1.32,-0.75 1.82,-1.31 0.5,-0.57 0.9,-1.24 1.19,-2.01 0.29,-0.78 0.43,-1.62 0.43,-2.53z"/>
   <path id="4" fill="#455A64" fill-rule="nonzero" d="M127.08 242.53l-2.76 4.38c-0.51,-0.55 -1.06,-1.04 -1.67,-1.45 -0.61,-0.42 -1.23,-0.63 -1.85,-0.63 -0.33,0 -0.7,0.08 -1.09,0.23 -0.4,0.16 -0.77,0.41 -1.12,0.77 -0.34,0.36 -0.64,0.83 -0.88,1.42 -0.23,0.58 -0.35,1.31 -0.35,2.17l0 11.69 -5.17 0 0 -20.73 5.17 0 0 2.22c0.62,-0.88 1.31,-1.56 2.06,-2.04 0.75,-0.48 1.59,-0.72 2.53,-0.72 0.91,0 1.8,0.25 2.67,0.74 0.87,0.49 1.69,1.14 2.46,1.95z"/>
   <path id="5" fill="#455A64" fill-rule="nonzero" d="M145.83 261.11l-5.17 0 0 -1.11c-0.91,0.62 -1.87,1.05 -2.89,1.29 -1.01,0.24 -2.06,0.36 -3.13,0.36 -1.01,0 -1.92,-0.15 -2.73,-0.45 -0.81,-0.3 -1.52,-0.73 -2.12,-1.29 -0.59,-0.56 -1.06,-1.22 -1.38,-1.99 -0.32,-0.76 -0.48,-1.61 -0.48,-2.55 0,-1.17 0.25,-2.19 0.77,-3.06 0.51,-0.88 1.21,-1.61 2.1,-2.19 0.88,-0.59 1.92,-1.02 3.1,-1.31 1.18,-0.29 2.46,-0.43 3.82,-0.43l2.98 0c0,-1.22 -0.4,-2.19 -1.19,-2.91 -0.79,-0.71 -1.92,-1.07 -3.4,-1.07 -0.72,0 -1.46,0.13 -2.23,0.39 -0.76,0.26 -1.53,0.74 -2.29,1.44l-3.05 -3.09c1.1,-1.05 2.37,-1.86 3.82,-2.44 1.44,-0.57 2.93,-0.86 4.46,-0.86 1.44,0 2.72,0.23 3.84,0.68 1.11,0.46 2.02,1.04 2.71,1.76 0.9,0.91 1.54,1.93 1.91,3.05 0.36,1.12 0.55,2.56 0.55,4.3l0 11.48zm-5.17 -5.16l0 -3.84 -2.37 0c-0.71,0 -1.39,0.05 -2.02,0.14 -0.64,0.1 -1.19,0.26 -1.65,0.49 -0.47,0.22 -0.84,0.52 -1.11,0.88 -0.28,0.36 -0.42,0.79 -0.42,1.29 0,0.72 0.28,1.3 0.85,1.76 0.56,0.45 1.28,0.68 2.17,0.68 0.76,0 1.52,-0.12 2.27,-0.36 0.76,-0.24 1.52,-0.59 2.28,-1.04z"/>
   <path id="6" fill="#455A64" fill-rule="nonzero" d="M164.79 242.53l-2.76 4.38c-0.5,-0.55 -1.06,-1.04 -1.67,-1.45 -0.61,-0.42 -1.22,-0.63 -1.84,-0.63 -0.34,0 -0.7,0.08 -1.1,0.23 -0.39,0.16 -0.76,0.41 -1.11,0.77 -0.35,0.36 -0.64,0.83 -0.88,1.42 -0.24,0.58 -0.36,1.31 -0.36,2.17l0 11.69 -5.16 0 0 -20.73 5.16 0 0 2.22c0.62,-0.88 1.31,-1.56 2.06,-2.04 0.76,-0.48 1.6,-0.72 2.53,-0.72 0.91,0 1.8,0.25 2.68,0.74 0.87,0.49 1.69,1.14 2.45,1.95z"/>
   <path id="7" fill="#455A64" fill-rule="nonzero" d="M196.89 261.11l-5.17 0 0 -12.37c0,-0.74 -0.11,-1.4 -0.34,-1.96 -0.23,-0.56 -0.54,-1.03 -0.92,-1.4 -0.38,-0.37 -0.82,-0.64 -1.31,-0.82 -0.49,-0.18 -1.01,-0.27 -1.53,-0.27 -0.79,0 -1.58,0.14 -2.35,0.41 -0.76,0.28 -1.46,0.71 -2.09,1.31l0 15.1 -5.16 0 0 -20.73 5.16 0 0.04 1.54c0.31,-0.31 0.69,-0.6 1.15,-0.86 0.45,-0.26 0.92,-0.48 1.42,-0.66 0.49,-0.18 0.99,-0.32 1.5,-0.42 0.52,-0.09 1.01,-0.14 1.49,-0.14 1.05,0 2.06,0.17 3.03,0.5 0.97,0.34 1.83,0.85 2.58,1.55 0.76,0.69 1.36,1.59 1.82,2.69 0.45,1.1 0.68,2.4 0.68,3.91l0 12.62z"/>
   <path id="8" fill="#455A64" fill-rule="nonzero" d="M222.35 250.75c0,1.55 -0.29,2.99 -0.87,4.32 -0.57,1.33 -1.36,2.47 -2.36,3.44 -1.01,0.97 -2.19,1.74 -3.54,2.3 -1.35,0.56 -2.79,0.84 -4.32,0.84 -1.53,0 -2.96,-0.28 -4.3,-0.84 -1.34,-0.56 -2.51,-1.33 -3.52,-2.31 -1,-0.99 -1.79,-2.14 -2.37,-3.47 -0.57,-1.32 -0.86,-2.75 -0.86,-4.28 0,-1.51 0.3,-2.93 0.88,-4.25 0.59,-1.33 1.38,-2.49 2.39,-3.48 1,-1 2.17,-1.77 3.51,-2.34 1.34,-0.56 2.76,-0.84 4.27,-0.84 1.53,0 2.97,0.28 4.32,0.84 1.35,0.57 2.53,1.33 3.54,2.3 1,0.97 1.79,2.12 2.36,3.46 0.58,1.34 0.87,2.78 0.87,4.31zm-5.17 0c0,-0.89 -0.16,-1.71 -0.47,-2.48 -0.31,-0.76 -0.73,-1.43 -1.26,-2.01 -0.54,-0.57 -1.17,-1.02 -1.88,-1.34 -0.72,-0.33 -1.48,-0.49 -2.29,-0.49 -0.81,0 -1.57,0.16 -2.29,0.49 -0.71,0.32 -1.34,0.77 -1.88,1.34 -0.54,0.58 -0.95,1.25 -1.26,2.01 -0.32,0.77 -0.47,1.59 -0.47,2.48 0,0.88 0.15,1.71 0.47,2.47 0.31,0.77 0.72,1.44 1.26,2.01 0.54,0.57 1.17,1.02 1.88,1.35 0.72,0.32 1.48,0.48 2.29,0.48 0.81,0 1.57,-0.16 2.29,-0.48 0.71,-0.33 1.34,-0.78 1.88,-1.35 0.53,-0.57 0.95,-1.24 1.26,-2.01 0.31,-0.76 0.47,-1.59 0.47,-2.47z"/>
   <polygon id="9" fill="#455A64" fill-rule="nonzero" points="259.71,232.42 245.83,255.63 259.61,255.63 259.61,261.11 236.25,261.11 250.46,237.37 236.79,237.4 236.79,232.42 "/>
   <path id="10" fill="#455A64" fill-rule="nonzero" d="M279.86 261.11l-5.16 0 0 -1.11c-0.91,0.62 -1.87,1.05 -2.89,1.29 -1.02,0.24 -2.06,0.36 -3.14,0.36 -1,0 -1.91,-0.15 -2.73,-0.45 -0.81,-0.3 -1.51,-0.73 -2.11,-1.29 -0.6,-0.56 -1.06,-1.22 -1.38,-1.99 -0.33,-0.76 -0.49,-1.61 -0.49,-2.55 0,-1.17 0.26,-2.19 0.77,-3.06 0.52,-0.88 1.22,-1.61 2.1,-2.19 0.89,-0.59 1.92,-1.02 3.1,-1.31 1.19,-0.29 2.46,-0.43 3.82,-0.43l2.98 0c0,-1.22 -0.39,-2.19 -1.18,-2.91 -0.79,-0.71 -1.93,-1.07 -3.41,-1.07 -0.72,0 -1.46,0.13 -2.22,0.39 -0.77,0.26 -1.53,0.74 -2.3,1.44l-3.05 -3.09c1.1,-1.05 2.38,-1.86 3.82,-2.44 1.45,-0.57 2.94,-0.86 4.47,-0.86 1.43,0 2.71,0.23 3.83,0.68 1.12,0.46 2.03,1.04 2.71,1.76 0.91,0.91 1.54,1.93 1.91,3.05 0.37,1.12 0.55,2.56 0.55,4.3l0 11.48zm-5.16 -5.16l0 -3.84 -2.37 0c-0.72,0 -1.39,0.05 -2.03,0.14 -0.63,0.1 -1.18,0.26 -1.65,0.49 -0.46,0.22 -0.83,0.52 -1.11,0.88 -0.27,0.36 -0.41,0.79 -0.41,1.29 0,0.72 0.28,1.3 0.84,1.76 0.56,0.45 1.29,0.68 2.17,0.68 0.77,0 1.53,-0.12 2.28,-0.36 0.75,-0.24 1.51,-0.59 2.28,-1.04z"/>
   <path id="11" fill="#455A64" fill-rule="nonzero" d="M303.89 250.78c0,1.46 -0.25,2.85 -0.74,4.16 -0.49,1.32 -1.18,2.47 -2.07,3.47 -0.88,0.99 -1.94,1.78 -3.16,2.36 -1.23,0.59 -2.57,0.88 -4.03,0.88 -0.91,0 -1.76,-0.12 -2.55,-0.37 -0.79,-0.26 -1.54,-0.66 -2.23,-1.21l0.03 10.05 -5.2 0 0 -29.78 5.2 0 0.04 1.08c0.6,-0.48 1.31,-0.86 2.13,-1.15 0.83,-0.29 1.69,-0.43 2.6,-0.43 1.27,0 2.5,0.28 3.7,0.84 1.19,0.57 2.26,1.34 3.19,2.32 0.93,0.98 1.68,2.13 2.24,3.46 0.57,1.33 0.85,2.77 0.85,4.32zm-5.28 0.04c0,-0.98 -0.14,-1.87 -0.43,-2.66 -0.29,-0.79 -0.69,-1.46 -1.21,-2.02 -0.51,-0.57 -1.13,-1 -1.83,-1.29 -0.71,-0.3 -1.5,-0.45 -2.36,-0.45 -0.55,0 -1.18,0.11 -1.89,0.34 -0.71,0.22 -1.3,0.53 -1.78,0.91l0 9.94c1.13,1.03 2.38,1.54 3.78,1.54 0.81,0 1.57,-0.15 2.29,-0.46 0.7,-0.32 1.31,-0.75 1.81,-1.31 0.5,-0.57 0.9,-1.24 1.19,-2.01 0.29,-0.78 0.43,-1.62 0.43,-2.53z"/>
   <path fill="#25D366" d="M153.57 0.09c-50.41,0 -91.27,40.86 -91.27,91.28 0,17.24 4.78,33.37 13.09,47.13l-16.47 48.97 50.53 -16.18c13.08,7.23 28.12,11.35 44.12,11.35 50.41,0 91.28,-40.87 91.28,-91.27 0,-50.42 -40.87,-91.28 -91.28,-91.28zm0 167.26c-15.43,0 -29.8,-4.63 -41.8,-12.56l-29.2 9.34 9.49 -28.21c-9.1,-12.53 -14.47,-27.92 -14.47,-44.55 0,-41.91 34.08,-75.99 75.98,-75.99 41.9,0 75.99,34.08 75.99,75.99 0,41.89 -34.09,75.98 -75.99,75.98z"/>
  </g>
 </g>
</svg>
