<?xml version="1.0" encoding="UTF-8"?>
<!DOCTYPE svg PUBLIC "-//W3C//DTD SVG 1.1//EN" "http://www.w3.org/Graphics/SVG/1.1/DTD/svg11.dtd">
<!-- Creator: CorelDRAW 2019 (64-Bit) -->
<svg xmlns="http://www.w3.org/2000/svg" xml:space="preserve" width="187px" height="187px" version="1.1" shape-rendering="geometricPrecision" text-rendering="geometricPrecision" image-rendering="optimizeQuality" fill-rule="evenodd" clip-rule="evenodd"
viewBox="0 0 187 186.82"
 xmlns:xlink="http://www.w3.org/1999/xlink">
 <g id="Layer_x0020_1">
  <metadata id="CorelCorpID_0Corel-Layer"/>
  <path fill="#25D366" d="M94.9 0.38c-50.7,0 -91.8,40.75 -91.8,91.01 0,17.2 4.82,33.28 13.17,47l-16.56 48.82 50.82 -16.13c13.15,7.21 28.28,11.32 44.37,11.32 50.7,0 91.8,-40.75 91.8,-91.01 0,-50.26 -41.1,-91.01 -91.8,-91.01zm0 166.77c-15.52,0 -29.98,-4.61 -42.04,-12.52l-29.37 9.32 9.54 -28.14c-9.14,-12.49 -14.55,-27.84 -14.55,-44.42 0,-41.78 34.28,-75.76 76.42,-75.76 42.14,0 76.42,33.98 76.42,75.76 0,41.78 -34.28,75.76 -76.42,75.76z"/>
 </g>
</svg>
